<mxfile host="app.diagrams.net" agent="Mozilla/5.0 (X11; CrOS x86_64 14541.0.0) AppleWebKit/537.36 (KHTML, like Gecko) Chrome/128.0.0.0 Safari/537.36" version="24.7.14" pages="2">
  <diagram name="use case" id="w0CsngXeCLmQ_UkGno5b">
    <mxGraphModel dx="2176" dy="740" grid="1" gridSize="10" guides="1" tooltips="1" connect="1" arrows="1" fold="1" page="1" pageScale="1" pageWidth="827" pageHeight="1169" math="0" shadow="0">
      <root>
        <mxCell id="0" />
        <mxCell id="1" parent="0" />
        <mxCell id="rMh3HQRjl3qGVYBa4oEw-11" value="" style="whiteSpace=wrap;html=1;aspect=fixed;fontSize=20;" vertex="1" parent="1">
          <mxGeometry x="-40" y="280" width="625" height="625" as="geometry" />
        </mxCell>
        <mxCell id="rMh3HQRjl3qGVYBa4oEw-22" value="s" style="edgeStyle=none;rounded=0;orthogonalLoop=1;jettySize=auto;html=1;exitX=1;exitY=0.3333333333333333;exitDx=0;exitDy=0;exitPerimeter=0;entryX=0;entryY=0.5;entryDx=0;entryDy=0;" edge="1" parent="1" source="rMh3HQRjl3qGVYBa4oEw-12" target="rMh3HQRjl3qGVYBa4oEw-15">
          <mxGeometry relative="1" as="geometry" />
        </mxCell>
        <mxCell id="rMh3HQRjl3qGVYBa4oEw-12" value="Admin" style="shape=umlActor;verticalLabelPosition=bottom;verticalAlign=top;html=1;outlineConnect=0;fontSize=18;" vertex="1" parent="1">
          <mxGeometry x="-160" y="450" width="90" height="170" as="geometry" />
        </mxCell>
        <mxCell id="rMh3HQRjl3qGVYBa4oEw-15" value="&lt;b style=&quot;font-size: 19px;&quot;&gt;mengelola konten&lt;/b&gt;" style="ellipse;whiteSpace=wrap;html=1;fontSize=19;" vertex="1" parent="1">
          <mxGeometry x="120" y="390" width="270" height="80" as="geometry" />
        </mxCell>
        <mxCell id="rMh3HQRjl3qGVYBa4oEw-17" value="Pengguna" style="shape=umlActor;verticalLabelPosition=bottom;verticalAlign=top;html=1;outlineConnect=0;fontSize=18;" vertex="1" parent="1">
          <mxGeometry x="640" y="450" width="90" height="150" as="geometry" />
        </mxCell>
        <mxCell id="rMh3HQRjl3qGVYBa4oEw-19" value="mengakses informasi" style="ellipse;whiteSpace=wrap;html=1;fontSize=20;fontStyle=1" vertex="1" parent="1">
          <mxGeometry x="120" y="620" width="270" height="80" as="geometry" />
        </mxCell>
        <mxCell id="rMh3HQRjl3qGVYBa4oEw-24" style="edgeStyle=none;rounded=0;orthogonalLoop=1;jettySize=auto;html=1;exitX=0;exitY=0.3333333333333333;exitDx=0;exitDy=0;exitPerimeter=0;entryX=0.672;entryY=0.608;entryDx=0;entryDy=0;entryPerimeter=0;" edge="1" parent="1" source="rMh3HQRjl3qGVYBa4oEw-17" target="rMh3HQRjl3qGVYBa4oEw-11">
          <mxGeometry relative="1" as="geometry" />
        </mxCell>
        <mxCell id="rMh3HQRjl3qGVYBa4oEw-26" value="&lt;span style=&quot;font-size: 16px;&quot;&gt;&amp;lt;System&amp;gt;&lt;/span&gt;&lt;div&gt;&lt;span style=&quot;font-size: 17px;&quot;&gt;Company profile&lt;/span&gt;&lt;/div&gt;" style="text;html=1;align=center;verticalAlign=middle;whiteSpace=wrap;rounded=0;" vertex="1" parent="1">
          <mxGeometry x="-30" y="310" width="170" height="60" as="geometry" />
        </mxCell>
      </root>
    </mxGraphModel>
  </diagram>
  <diagram id="CuAIZyLRneeemm1SBOBl" name="Page-2">
    <mxGraphModel dx="607" dy="333" grid="1" gridSize="10" guides="1" tooltips="1" connect="1" arrows="1" fold="1" page="1" pageScale="1" pageWidth="827" pageHeight="1169" math="0" shadow="0">
      <root>
        <mxCell id="0" />
        <mxCell id="1" parent="0" />
      </root>
    </mxGraphModel>
  </diagram>
</mxfile>
